<?xml version="1.0" standalone="no"?>
<!DOCTYPE svg PUBLIC "-//W3C//DTD SVG 20010904//EN"
 "http://www.w3.org/TR/2001/REC-SVG-20010904/DTD/svg10.dtd">
<svg version="1.0" xmlns="http://www.w3.org/2000/svg"
 width="96.000000pt" height="96.000000pt" viewBox="0 0 96.000000 96.000000"
 preserveAspectRatio="xMidYMid meet">
<metadata>
Created by potrace 1.16, written by Peter Selinger 2001-2019
</metadata>
<g transform="translate(0.000000,96.000000) scale(0.100000,-0.100000)"
fill="#000000" stroke="none">
<path d="M353 866 c-101 -33 -190 -113 -241 -216 -25 -50 -27 -65 -27 -170 0
-107 2 -119 29 -175 38 -77 114 -153 191 -191 56 -27 68 -29 175 -29 107 0
119 2 175 29 77 38 153 114 191 191 27 56 29 68 29 175 0 107 -2 119 -29 175
-38 77 -114 153 -191 190 -52 26 -72 30 -160 32 -64 2 -115 -2 -142 -11z m248
-176 c14 -8 19 -21 19 -52 0 -37 -2 -40 -22 -34 -13 3 -41 9 -63 12 -84 11
-150 -58 -142 -148 8 -93 71 -140 160 -119 67 15 67 16 67 -28 0 -35 -3 -40
-31 -50 -41 -14 -139 -14 -176 0 -73 27 -123 108 -123 199 0 141 87 229 228
230 35 0 72 -5 83 -10z"/>
</g>
</svg>
