<?xml version="1.0" standalone="no"?>
<!DOCTYPE svg PUBLIC "-//W3C//DTD SVG 20010904//EN"
 "http://www.w3.org/TR/2001/REC-SVG-20010904/DTD/svg10.dtd">
<svg version="1.0" xmlns="http://www.w3.org/2000/svg"
 width="32.000000pt" height="32.000000pt" viewBox="0 0 32.000000 32.000000"
 preserveAspectRatio="xMidYMid meet">
<metadata>
Created by potrace 1.16, written by Peter Selinger 2001-2019
</metadata>
<g transform="translate(0.000000,32.000000) scale(0.100000,-0.100000)"
fill="#000000" stroke="none">
<path d="M130 199 c0 -17 -3 -19 -13 -10 -8 6 -17 8 -20 4 -4 -3 -7 -1 -7 5 0
7 -8 12 -17 12 -16 0 -18 -8 -14 -62 2 -53 5 -60 16 -45 7 9 17 17 23 17 6 0
16 8 21 18 6 9 11 11 11 5 0 -25 20 -13 20 12 0 16 6 25 16 25 14 0 14 -3 3
-16 -10 -12 -10 -17 0 -23 14 -9 14 -20 2 -36 -24 -31 -19 -41 18 -36 26 4 30
6 14 9 -25 4 -28 10 -13 32 6 10 10 11 10 3 0 -7 7 -13 15 -13 8 0 15 -5 15
-10 0 -16 56 16 74 42 9 12 16 34 15 48 l-1 25 -7 -24 c-9 -35 -47 -36 -46 -2
0 22 -5 26 -32 29 -32 3 -33 2 -35 -40 l-1 -43 -4 38 c-3 29 -9 37 -24 37 -10
0 -19 5 -19 10 0 6 -4 10 -10 10 -5 0 -10 -10 -10 -21z"/>
</g>
</svg>
